<?xml version="1.0" encoding="UTF-8"?> <!-- Generator: Adobe Illustrator 25.0.0, SVG Export Plug-In . SVG Version: 6.00 Build 0) --> <svg xmlns="http://www.w3.org/2000/svg" xmlns:xlink="http://www.w3.org/1999/xlink" version="1.1" id="Layer_1" x="0px" y="0px" viewBox="0 0 764.6 87.2" style="enable-background:new 0 0 764.6 87.2;" xml:space="preserve"> <style type="text/css"> .st0{clip-path:url(#SVGID_2_);fill:#1E4D65;} .st1{clip-path:url(#SVGID_2_);fill:#32BED1;} </style> <g> <defs> <rect id="SVGID_1_" y="0" width="764.6" height="87.2"></rect> </defs> <clipPath id="SVGID_2_"> <use xlink:href="#SVGID_1_" style="overflow:visible;"></use> </clipPath> <path class="st0" d="M47.9,87.2c-6.8,0-13.2-1.1-19-3.2c-5.8-2.1-10.9-5.1-15.2-8.9C9.4,71.3,6,66.7,3.6,61.3C1.2,55.9,0,50,0,43.5 c0-6.3,1.2-12,3.5-17.3c2.4-5.3,5.7-9.9,9.9-13.8c4.2-3.9,9.2-7,14.9-9.1C34.1,1.1,40.3,0,47.1,0c4.7,0,9.3,0.6,13.8,1.9 c4.5,1.3,8.6,2.9,12.3,5c3.7,2.1,6.6,4.4,8.8,7l-3.8,4.5c-2.3-2.4-5.1-4.4-8.5-6.2c-3.4-1.8-7.1-3.3-11-4.4 c-3.9-1.1-7.7-1.7-11.5-1.7c-5.8,0-11.1,0.9-16.1,2.8c-5,1.9-9.3,4.5-13,7.8C14.5,20,11.7,24,9.6,28.6c-2,4.6-3.1,9.6-3.1,14.9 c0,5.6,1,10.7,3.1,15.3c2.1,4.6,5,8.6,8.8,11.9c3.8,3.3,8.2,5.9,13.3,7.7c5.1,1.8,10.6,2.7,16.5,2.7c5,0,9.6-0.7,14-2.1 c4.3-1.4,8.1-3.4,11.3-5.9c3.2-2.5,5.7-5.4,7.6-8.7c1.8-3.3,2.7-6.8,2.6-10.4v-5.4l2.4,3.5H48.1V46h41.6c0.1,0.4,0.1,1,0.2,1.8 c0,0.8,0.1,1.7,0.1,2.6c0,0.9,0.1,1.6,0.1,2.2c0,4.8-1.1,9.3-3.3,13.5c-2.2,4.2-5.2,7.9-9,11c-3.8,3.2-8.3,5.7-13.4,7.4 C59.3,86.3,53.8,87.2,47.9,87.2"></path> <path class="st0" d="M151.4,86.8c-7.1,0-13.3-1.6-18.7-4.8c-5.4-3.2-9.6-7.5-12.6-13c-3-5.5-4.5-11.9-4.5-19V0.6h6.1v48.7 c0,6.1,1.3,11.5,3.8,16.3c2.6,4.8,6.1,8.5,10.5,11.2c4.5,2.7,9.6,4,15.4,4c6,0,11.3-1.3,15.9-4c4.6-2.7,8.1-6.4,10.7-11.2 c2.6-4.8,3.9-10.2,3.9-16.3V0.6h6v49.5c0,7.1-1.5,13.4-4.6,18.9c-3.1,5.5-7.4,9.9-12.8,13C164.9,85.3,158.6,86.8,151.4,86.8"></path> <path class="st0" d="M248.2,87.2c-4.6,0-8.9-0.6-13.1-1.8c-4.1-1.2-8-3-11.5-5.4c-3.5-2.4-6.7-5.3-9.5-8.8l4.1-4.8 c4.1,5.2,8.7,9,13.8,11.3c5.1,2.3,10.5,3.5,16.2,3.5c5.1,0,9.7-0.8,13.7-2.3c4-1.5,7.2-3.6,9.5-6.4c2.3-2.8,3.4-5.9,3.4-9.5 c0-2.5-0.5-4.6-1.6-6.3s-2.6-3.1-4.4-4.3c-1.8-1.1-3.9-2.1-6.3-2.9c-2.4-0.8-4.8-1.5-7.3-2.1c-2.5-0.6-5-1.1-7.6-1.7 c-4.1-1-8-2-11.6-3c-3.6-1.1-6.7-2.4-9.5-4c-2.7-1.6-4.8-3.6-6.3-6c-1.5-2.4-2.2-5.5-2.2-9.5c0-3.5,0.8-6.6,2.3-9.5 c1.5-2.8,3.6-5.2,6.4-7.3c2.8-2,6-3.6,9.6-4.7C240,0.5,244,0,248.2,0c4.9,0,9.2,0.6,12.9,1.9c3.7,1.3,7,3,9.9,5.2 c2.9,2.2,5.5,4.9,7.7,8.1l-4.3,4.6c-2.1-2.9-4.5-5.4-7.1-7.5c-2.6-2.1-5.5-3.6-8.7-4.7c-3.2-1.1-6.7-1.6-10.5-1.6 c-4.5,0-8.5,0.7-12,2.1c-3.5,1.4-6.4,3.4-8.5,5.9c-2.1,2.5-3.2,5.4-3.2,8.8c0,2.7,0.6,4.9,1.9,6.7c1.3,1.8,3,3.3,5.4,4.5 c2.3,1.2,5.1,2.3,8.5,3.1c3.3,0.9,7,1.7,11,2.5c3.9,0.7,7.6,1.6,11.2,2.7c3.6,1.1,6.8,2.4,9.6,4c2.8,1.6,5.1,3.8,6.7,6.4 c1.6,2.6,2.4,6,2.4,10.1c0,4.6-1.4,8.8-4.1,12.5c-2.8,3.7-6.6,6.6-11.6,8.7C260.5,86.2,254.8,87.2,248.2,87.2"></path> <polygon class="st0" points="325.9,86 325.9,6.7 297.5,6.7 297.5,0.6 361.2,0.6 361.2,6.7 332,6.7 332,86 "></polygon> <path class="st0" d="M419.5,87.2c-6.8,0-12.9-1.1-18.4-3.2c-5.5-2.2-10.4-5.2-14.5-9.1c-4.1-3.9-7.3-8.5-9.5-13.8 c-2.2-5.3-3.3-11.1-3.3-17.4c0-6.3,1.1-12.1,3.3-17.4c2.2-5.3,5.4-10,9.5-13.9c4.1-3.9,9-7,14.5-9.1c5.5-2.2,11.7-3.2,18.4-3.2 c6.7,0,12.8,1.1,18.4,3.2c5.6,2.2,10.4,5.2,14.5,9.1c4.1,3.9,7.2,8.6,9.5,13.9c2.3,5.3,3.4,11.1,3.4,17.4c0,6.3-1.1,12.1-3.4,17.4 c-2.3,5.3-5.4,9.9-9.5,13.8c-4.1,3.9-8.9,6.9-14.5,9.1S426.2,87.2,419.5,87.2 M419.5,81.1c5.7,0,11-0.9,15.8-2.7 c4.8-1.8,9-4.4,12.6-7.8c3.5-3.4,6.3-7.3,8.2-11.9c1.9-4.6,2.9-9.6,2.9-15c0-5.4-1-10.5-2.9-15.1c-1.9-4.6-4.6-8.6-8.2-11.9 c-3.5-3.3-7.7-5.9-12.6-7.8c-4.8-1.9-10.1-2.8-15.8-2.8c-5.7,0-11,0.9-15.8,2.8c-4.8,1.9-9,4.5-12.5,7.9c-3.5,3.4-6.2,7.4-8.1,12 c-1.9,4.6-2.9,9.6-2.9,14.9c0,5.4,1,10.4,2.9,14.9c1.9,4.5,4.6,8.5,8.1,11.9c3.5,3.4,7.7,6,12.5,7.9 C408.6,80.2,413.9,81.1,419.5,81.1"></path> <polygon class="st1" points="495.7,86 495.7,0.6 501.8,0.6 501.8,79.9 550.5,79.9 550.5,86 "></polygon> <path class="st1" d="M563.5,86l36.1-85.4h8.4L643.8,86h-7l-26-62c-1.1-2.8-1.9-5.1-2.6-6.9c-0.7-1.7-1.3-3.3-1.9-4.7 c-0.6-1.4-1.1-2.9-1.7-4.5c-0.6-1.6-1.3-3.6-2.1-5.9h2c-0.8,2.8-1.5,5-2.2,6.7c-0.7,1.7-1.3,3.3-1.9,4.6c-0.6,1.4-1.3,2.9-2,4.6 c-0.7,1.7-1.6,3.9-2.6,6.7l-26,61.2H563.5z M578,60.7l2.6-6.1h46.5l2,6.1H578z"></path> <path class="st1" d="M678.1,86L651.8,0.6h6.8L676,58.3c0.8,2.7,1.5,5,2.1,6.8c0.6,1.9,1.1,3.6,1.5,5.1c0.4,1.5,0.9,3.2,1.3,5 c0.4,1.8,0.9,3.9,1.5,6.5h-0.7c0.9-3.2,1.7-5.8,2.6-8c0.8-2.2,1.7-4.5,2.7-6.9c1-2.4,2.2-5.5,3.6-9.1l13.8-33.5h6.2l16.1,38.2 c1.1,2.8,2.2,5.3,3.2,7.6c1,2.3,1.9,4.4,2.6,6.3c0.7,1.9,1.1,3.7,1.3,5.5h-1c0.5-1.8,0.9-3.5,1.3-5c0.4-1.5,0.8-3.1,1.2-4.6 c0.4-1.5,0.8-3.1,1.2-4.6c0.4-1.5,0.9-3.1,1.5-4.8c0.5-1.6,1.1-3.4,1.6-5.2l18.5-56.8h6.6L736.6,86H730l-24.1-57.3l3.2,0.1 L685.2,86H678.1z"></path> </g> </svg> 