<?xml version="1.0" encoding="UTF-8"?> <!-- Generator: Adobe Illustrator 25.0.0, SVG Export Plug-In . SVG Version: 6.00 Build 0) --> <svg xmlns="http://www.w3.org/2000/svg" xmlns:xlink="http://www.w3.org/1999/xlink" version="1.1" id="Layer_1" x="0px" y="0px" viewBox="0 0 500 500" style="enable-background:new 0 0 500 500;" xml:space="preserve"> <style type="text/css"> .st0{fill:#32bed1;} </style> <g> <g> <rect x="238.5" y="437.3" class="st0" width="209.8" height="17.1"></rect> </g> <g> <path class="st0" d="M434.3,425.9h-17.1v-19.8c0-0.7-0.6-1.3-1.3-1.3H272.6c-0.7,0-1.3,0.6-1.3,1.3v19.8h-17.1v-19.8 c0-10.2,8.3-18.4,18.4-18.4h143.2c10.2,0,18.4,8.3,18.4,18.4V425.9z"></path> </g> <g> <path class="st0" d="M404.3,404.8H284.1c-10.2,0-18.4-8.3-18.4-18.4v-14.8c0-10.2,8.3-18.4,18.4-18.4h120.2 c10.2,0,18.4,8.3,18.4,18.4v14.8C422.7,396.5,414.5,404.8,404.3,404.8z M284.1,370.2c-0.7,0-1.3,0.6-1.3,1.3v14.8 c0,0.7,0.6,1.3,1.3,1.3h120.2c0.7,0,1.3-0.6,1.3-1.3v-14.8c0-0.7-0.6-1.3-1.3-1.3H284.1z"></path> </g> <g> <g> <g> <path class="st0" d="M325.7,285.8c-4.6,0-8.9-1.8-12.2-5.1l-19.4-19.4c-6.7-6.7-6.7-17.7,0-24.4l80.8-80.8 c3.2-3.3,7.6-5.1,12.2-5.1c0,0,0,0,0,0c4.6,0,8.9,1.8,12.2,5.1l19.5,19.4c6.7,6.7,6.7,17.7,0,24.4l-80.8,80.8 C334.7,284,330.3,285.8,325.7,285.8z M387.2,168.2l-81,80.8l19.4,19.6l87.1-87.1l-6.1,6.1L387.2,168.2z"></path> </g> <g> <path class="st0" d="M220.3,180.4c-4.4,0-8.8-1.7-12.2-5l-19.4-19.4c-6.7-6.7-6.7-17.7,0-24.4l80.8-80.8 c3.3-3.3,7.6-5.1,12.2-5.1c4.6,0,8.9,1.8,12.2,5.1l19.4,19.4c3.3,3.3,5.1,7.6,5.1,12.2c0,4.6-1.8,8.9-5.1,12.2l-80.8,80.8 C229.2,178.7,224.7,180.4,220.3,180.4z M281.8,62.8l-81,80.8l19.4,19.6l81-81L281.8,62.8z"></path> </g> </g> <g> <g> <rect x="262.6" y="143.9" transform="matrix(0.7071 -0.7071 0.7071 0.7071 -60.7824 249.7837)" class="st0" width="17.1" height="108.6"></rect> </g> <g> <rect x="327.7" y="78.8" transform="matrix(0.7071 -0.7071 0.7071 0.7071 4.3983 276.7849)" class="st0" width="17.1" height="108.6"></rect> </g> </g> <g> <path class="st0" d="M118.1,387.9l-36.5-36.6l177.4-177.4l36.6,36.5L118.1,387.9z M105.7,351.3l12.3,12.3l153.2-153.2l-12.3-12.3 L105.7,351.3z"></path> </g> <g> <path class="st0" d="M98.7,419.4L50,370.7l37.6-37.6l48.7,48.7L98.7,419.4z M74.2,370.7l24.4,24.4l13.4-13.4l-24.4-24.4 L74.2,370.7z"></path> </g> <g> <rect x="228.8" y="215.6" transform="matrix(0.7071 -0.7071 0.7071 0.7071 -94.5366 235.8022)" class="st0" width="17.1" height="32.9"></rect> </g> <g> <rect x="204.4" y="240" transform="matrix(0.707 -0.7072 0.7072 0.707 -118.9844 225.7053)" class="st0" width="17.1" height="32.9"></rect> </g> <g> <rect x="293.8" y="144.2" transform="matrix(0.7071 -0.7072 0.7072 0.7071 -29.5385 262.7455)" class="st0" width="17.1" height="45.7"></rect> </g> </g> <g> <g> <rect x="412.5" y="285.3" class="st0" width="37.5" height="17.1"></rect> </g> <g> <g> <rect x="403.9" y="247.3" transform="matrix(0.8439 -0.5365 0.5365 0.8439 -71.2706 266.7249)" class="st0" width="37.5" height="17.1"></rect> </g> <g> <rect x="414.1" y="313.1" transform="matrix(0.5365 -0.8439 0.8439 0.5365 -84.1113 510.5186)" class="st0" width="17.1" height="37.5"></rect> </g> </g> </g> <g> <g> <rect x="244.2" y="285.3" class="st0" width="37.5" height="17.1"></rect> </g> <g> <g> <rect x="252.7" y="323.3" transform="matrix(0.8439 -0.5365 0.5365 0.8439 -135.6537 197.4692)" class="st0" width="37.5" height="17.1"></rect> </g> </g> </g> </g> </svg> 