<?xml version="1.0" encoding="UTF-8"?> <!-- Generator: Adobe Illustrator 25.0.0, SVG Export Plug-In . SVG Version: 6.00 Build 0) --> <svg xmlns="http://www.w3.org/2000/svg" xmlns:xlink="http://www.w3.org/1999/xlink" version="1.1" id="Layer_1" x="0px" y="0px" viewBox="0 0 500 500" style="enable-background:new 0 0 500 500;" xml:space="preserve"> <style type="text/css"> .st0{fill:#32bed1;} </style> <path class="st0" d="M446.5,218.6l-66.9-87c-2.5-3.2-7-4-10.4-1.8l-43.2,27.5h-56.4c-0.7,0-1.5,0.2-2.2,0.4l-43.7,12.6l-45.4-12.4 l-44.1-28c-3.4-2.1-7.8-1.4-10.3,1.7l-74.1,91.7c-2.7,3.3-2.2,8.1,1,10.9l38.8,33.4l34.8,46.9c-10.2,10.8-10,28,0.6,38.6 c4.7,4.7,10.7,7.3,16.8,8c-0.2,1.4-0.3,2.8-0.3,4.2c0,7.4,2.9,14.4,8.1,19.6c5.2,5.2,12.2,8.1,19.6,8.1c0.1,0,0.2,0,0.3,0 c0,0.2,0,0.4,0,0.6c0,7.4,2.9,14.4,8.1,19.6c5.2,5.2,12.2,8.1,19.6,8.1c1.5,0,2.9-0.1,4.3-0.3c0.6,6.2,3.3,12.2,8,16.9 c5.4,5.4,12.5,8.1,19.6,8.1s14.2-2.7,19.6-8.1l4.2-4.2l1.8,1.4c5.4,5.2,12.3,7.8,19.3,7.8c7.1,0,14.2-2.7,19.6-8.1 c5.5-5.5,8.2-12.8,8.1-20c7.2,0.1,14.5-2.6,20-8.1c5.5-5.5,8.2-12.8,8.1-20c7.5,0.1,14.7-2.8,20-8.1c5.5-5.5,8.2-12.8,8.1-20 c7.2,0.1,14.5-2.6,20-8.1c9.4-9.4,10.6-24,3.6-34.7l25.4-53.2l38.2-32.9C448.5,226.6,449,221.9,446.5,218.6z M131.7,146.8l31.7,20.2 l-68.9,84l-27.6-23.8L131.7,146.8z M136.2,324.8l9.6-9.6c0.3-0.3,0.6-0.6,0.9-0.8c1.9-1.5,4.1-2.4,6.5-2.7c0.1,0,0.1,0,0.2,0 c0.3,0,0.7,0,1,0c3.3,0,6.3,1.4,8.6,3.8c4.4,4.7,4.2,12.3-0.5,17.1l-9.3,9.3c-4.7,4.7-12.3,4.7-17,0 C131.5,337.2,131.5,329.5,136.2,324.8z M160.8,373.7c-2.3-2.3-3.5-5.3-3.5-8.5s1.3-6.2,3.5-8.5l18.5-18.5c3.6-3.6,9.1-4.5,13.7-2.4 c4.7,2.2,7.3,7.3,6.6,12.4c-0.4,2.7-1.6,5.3-3.6,7.2l-18.3,18.2c-2.3,2.3-5.3,3.5-8.5,3.5S163.1,375.9,160.8,373.7z M188.8,401.9 c-2.3-2.3-3.5-5.3-3.5-8.5s1.3-6.2,3.5-8.5l18.5-18.5c3.8-3.8,9.9-4.6,14.5-1.9c4.2,2.5,6.5,7.3,5.7,12.2c-0.4,2.7-1.7,5.2-3.6,7.1 l-18.2,18.2c-2.3,2.3-5.3,3.5-8.5,3.5S191.1,404.2,188.8,401.9z M220.7,426.6c-4.7-4.7-4.7-12.3,0-17l9.6-9.6 c0.3-0.3,0.6-0.6,0.9-0.8c0,0,0,0,0,0c1.6-1.3,3.4-2.1,5.3-2.5c0,0,0.1,0,0.1,0c0.3-0.1,0.7-0.1,1-0.1c0.1,0,0.3,0,0.4,0 c0.3,0,0.6,0,0.8,0c3.3,0,6.3,1.4,8.6,3.8c0.3,0.3,0.5,0.6,0.8,0.9c3.6,4.7,3.1,11.7-1.4,16.2l-9.2,9.2 C233,431.3,225.4,431.3,220.7,426.6z M367,339.1c-4.7,4.7-12.3,4.7-17,0c-0.2-0.2-0.4-0.3-0.5-0.5l-50.4-51c-3-3.1-8-3.1-11.1-0.1 c-3.1,3-3.1,8-0.1,11.1l51,51.5c0,0,0,0,0,0c4.7,4.7,4.7,12.3,0,17c-2.3,2.3-5.3,3.5-8.5,3.5c-3.2,0-6.2-1.3-8.5-3.5l-34.1-34.5 c-3-3.1-8-3.1-11.1-0.1c-3.1,3-3.1,8-0.1,11.1l33.6,33.9c0.2,0.2,0.4,0.4,0.5,0.6c4.7,4.7,4.7,12.3,0,17c-4.7,4.7-12.3,4.7-17,0 l-18.6-18.8c-3-3.1-8-3.1-11.1-0.1c-3.1,3-3.1,8-0.1,11.1l18.1,18.3c0.2,0.2,0.4,0.4,0.6,0.6c4.7,4.7,4.7,12.3,0,17 c-4.7,4.7-12.3,4.7-17,0c-0.5-0.5-1.2-1-1.8-1.4c-0.5-0.4-0.6-0.7-0.4-1.3c0.3-0.6,0.6-1.2,0.9-1.8c0.3-0.7,0.5-1.4,0.7-2.2 c1.2-3.9,1.6-8,1-12.1c-1-7.7-5.3-14.7-11.7-19.1c-3.5-2.4-7.5-3.9-11.7-4.5c2-8.9-0.4-18.6-6.7-25.2c-5.2-5.5-12.2-8.6-19.8-8.7 c-0.3,0-0.5,0-0.8,0c0.2-7.2-2.5-14.4-7.4-19.6c-5.2-5.5-12.2-8.6-19.8-8.7c-2.2,0-4.5,0.2-6.7,0.7c-0.9-6.5-4.2-12.5-9.2-16.8 c-4.9-4.3-11.1-6.6-17.7-6.7c-6.9-0.1-13.8,2.5-18.9,7.1l-30.3-40.9l72.5-88.4l23.1,6.3l-30.2,53.3c-3.6,6.4-4.6,13.9-2.6,21.1 c2,7.1,6.6,13.1,13,16.7c0.4,0.2,0.8,0.4,1.2,0.7c0,0,0.1,0,0.1,0c1.1,0.5,2.2,1,3.3,1.4c5.3,1.8,10.9,2,16.4,0.5 c7.1-2,13.1-6.6,16.7-13l19.6-34.6l35,2.5L367,322C371.7,326.7,371.7,334.4,367,339.1z M370.3,303.1l-87.5-87.5 c-0.2-0.2-0.3-0.3-0.5-0.5c-1.3-1-2.8-1.7-4.5-1.8l-42.9-3c-3-0.2-5.9,1.4-7.4,4l-22.1,38.9c-1.6,2.8-4.2,4.8-7.3,5.7 c-3.1,0.9-6.3,0.5-9.1-1.1c-2.8-1.6-4.8-4.2-5.7-7.3s-0.5-6.3,1.1-9.1l29.4-52l11.9-3.4c0.1,0,0.2-0.1,0.2-0.1l44.5-12.9h53.8 l67.2,85.4L370.3,303.1z M401.9,246l-62.1-79l31.7-20.2l58,75.4L401.9,246z"></path> <path class="st0" d="M290.4,142.5c2,0,4-0.8,5.5-2.3l53.6-53.6c3.1-3.1,3.1-8,0-11.1c-3.1-3.1-8-3.1-11.1,0l-53.6,53.6 c-3.1,3.1-3.1,8,0,11.1C286.4,141.8,288.4,142.5,290.4,142.5z"></path> <path class="st0" d="M200.2,140.2c1.5,1.5,3.5,2.3,5.5,2.3c2,0,4-0.8,5.5-2.3c3.1-3.1,3.1-8,0-11.1l-53.6-53.6 c-3.1-3.1-8-3.1-11.1,0c-3.1,3.1-3.1,8,0,11.1L200.2,140.2z"></path> <path class="st0" d="M248.1,142.5c4.3,0,7.8-3.5,7.8-7.8V90.4c0-4.3-3.5-7.8-7.8-7.8s-7.8,3.5-7.8,7.8v44.3 C240.3,139,243.8,142.5,248.1,142.5z"></path> <path class="st0" d="M240.9,61.9c1.2,3,4.3,5,7.6,4.8c3.2-0.2,6.1-2.4,7.1-5.4c1-3.1-0.1-6.6-2.7-8.6c-2.7-2-6.4-2.1-9.1-0.3 C240.7,54.5,239.5,58.5,240.9,61.9z"></path> </svg> 