<?xml version="1.0" encoding="UTF-8"?> <!-- Generator: Adobe Illustrator 25.0.0, SVG Export Plug-In . SVG Version: 6.00 Build 0) --> <svg xmlns="http://www.w3.org/2000/svg" xmlns:xlink="http://www.w3.org/1999/xlink" version="1.1" id="Layer_1" x="0px" y="0px" viewBox="0 0 500 500" style="enable-background:new 0 0 500 500;" xml:space="preserve"> <style type="text/css"> .st0{fill:#32bed1;} </style> <g> <g> <path class="st0" d="M290.1,254.1h-16.2v-16.2h16.2V254.1z M257.6,254.1h-16.2v-16.2h16.2V254.1z M225.1,254.1h-16.2v-16.2h16.2 V254.1z"></path> </g> <g> <g> <path class="st0" d="M129.8,280.4h-20.8C73.7,280.4,50,252.9,50,212v-53.9h16.2V212c0,25.2,11.2,52.1,42.7,52.1h20.8V280.4z"></path> </g> <g> <path class="st0" d="M391.1,280.4h-21v-16.2h21c31.5,0,42.7-27.1,42.7-52.5v-53.9H450v53.9C450,252.7,426.3,280.4,391.1,280.4z"></path> </g> </g> <g> <g> <g> <g> <rect x="164.9" y="141.4" class="st0" width="16.2" height="92.9"></rect> </g> <g> <rect x="132.2" y="141.4" class="st0" width="16.2" height="92.9"></rect> </g> </g> <g> <g> <rect x="164.9" y="309.6" class="st0" width="16.2" height="92.9"></rect> </g> <g> <rect x="132.2" y="309.6" class="st0" width="16.2" height="92.9"></rect> </g> </g> <g> <path class="st0" d="M176.2,319.5h-39.1c-8.1,0-14.7-6.6-14.7-14.7v-62c0-8.1,6.6-14.7,14.7-14.7h39.1c8.1,0,14.7,6.6,14.7,14.7 v62C190.9,312.9,184.3,319.5,176.2,319.5z M138.7,303.3h36v-58.9h-36V303.3z"></path> </g> <g> <rect x="148.5" y="285.3" class="st0" width="16.2" height="22"></rect> </g> </g> <g> <g> <g> <rect x="351.5" y="141.4" class="st0" width="16.2" height="92.9"></rect> </g> <g> <rect x="318.9" y="141.4" class="st0" width="16.2" height="92.9"></rect> </g> </g> <g> <g> <rect x="351.5" y="309.6" class="st0" width="16.2" height="92.9"></rect> </g> <g> <rect x="318.9" y="309.6" class="st0" width="16.2" height="92.9"></rect> </g> </g> <g> <path class="st0" d="M362.9,319.5h-39.1c-8.1,0-14.7-6.6-14.7-14.7v-62c0-8.1,6.6-14.7,14.7-14.7h39.1c8.1,0,14.7,6.6,14.7,14.7 v62C377.6,312.9,371,319.5,362.9,319.5z M325.3,303.3h36v-58.9h-36V303.3z"></path> </g> <g> <rect x="335.2" y="285.3" class="st0" width="16.2" height="22"></rect> </g> </g> </g> <g> <rect x="182.6" y="264.1" class="st0" width="134.9" height="16.2"></rect> </g> <g> <path class="st0" d="M450,413.5H50V132.2h400V413.5z M66.2,397.2h367.5V148.5H66.2V397.2z"></path> </g> <g> <polygon class="st0" points="309.6,121.1 293.3,121.1 293.3,102.8 206.7,102.8 206.7,121.1 190.4,121.1 190.4,86.5 309.6,86.5 "></polygon> </g> </g> </svg> 