<?xml version="1.0" encoding="UTF-8"?> <!-- Generator: Adobe Illustrator 25.0.0, SVG Export Plug-In . SVG Version: 6.00 Build 0) --> <svg xmlns="http://www.w3.org/2000/svg" xmlns:xlink="http://www.w3.org/1999/xlink" version="1.1" id="Layer_1" x="0px" y="0px" viewBox="0 0 500 500" style="enable-background:new 0 0 500 500;" xml:space="preserve"> <style type="text/css"> .st0{fill:#32bed1;} </style> <g> <g> <g> <g> <g> <path class="st0" d="M450,124.5h-42.1v-16.3h25.8V84.6c0-11.6-9.4-21-21-21V47.3c20.6,0,37.3,16.7,37.3,37.3V124.5z"></path> </g> <g> <path class="st0" d="M358.1,452.7l-16.2,0c-162.3,0-248.3,0-255.7,0l-0.1-16.3c7.4,0,93.5,0,255.8,0l15.2,0 c10.4-1.4,18.2-10.3,18.2-20.8l-0.2-13h0.2v-318c0-7.7,2.3-14.8,6.3-20.8c-38,0-114.3,0-228.2,0l-15.2,0 c-10.4,1.4-18.1,10.3-18.1,20.8v291.8h-16.3V84.6c0-18.9,14.2-34.9,33-37l0.9-0.1l15.7,0c162.3,0,248.3,0,255.7,0l1,16.2 c-10.6,1.2-18.6,10.2-18.6,20.9v334.3h-0.2c-1.6,17.5-15.2,31.7-32.9,33.8L358.1,452.7z"></path> </g> <g> <path class="st0" d="M83.9,452.7l-0.9-0.1c-18.8-2.2-33-18.1-33-37v-22.8h287.8v22.8c0,10.7,8,19.6,18.6,20.9l-1,16.2 c-7.4,0-93.4,0-255.7,0L83.9,452.7z M66.3,409.1v6.5c0,10.5,7.8,19.4,18.1,20.8l15.2,0c113.8,0,190.2,0,228.2,0 c-4-6-6.3-13.1-6.3-20.8v-6.5H66.3z"></path> </g> <g> <path class="st0" d="M450,120.6h-16.3v-36c0-11.6-9.4-21-21-21c-11.6,0-21,9.4-21,21h-16.3c0-20.6,16.7-37.3,37.3-37.3 c20.6,0,37.3,16.7,37.3,37.3V120.6z"></path> </g> <g> <path class="st0" d="M357.1,452.7c-19,0-35.6-17.3-35.6-37.1V392h16.3v23.6c0,10.5,9.6,20.8,19.3,20.8V452.7z"></path> </g> </g> </g> </g> <g> <g> <polygon class="st0" points="274.8,380.6 274.8,320.8 291.1,320.8 291.1,349.5 303.5,341 315.9,349.5 315.9,320.8 332.2,320.8 332.2,380.6 303.5,360.8 "></polygon> </g> <g> <g> <path class="st0" d="M303.5,337.8c-20.2,0-36.6-16.4-36.6-36.6c0-20.1,16.4-36.5,36.6-36.5c20.2,0,36.6,16.4,36.6,36.5 C340.1,321.4,323.7,337.8,303.5,337.8z M303.5,281c-11.2,0-20.3,9.1-20.3,20.3c0,11.2,9.1,20.3,20.3,20.3 c11.2,0,20.3-9.1,20.3-20.3C323.8,290.1,314.7,281,303.5,281z"></path> </g> </g> <g> <rect x="295.4" y="294" class="st0" width="16.3" height="16.3"></rect> </g> </g> <g> <g> <rect x="189.5" y="106.3" class="st0" width="104.9" height="16.3"></rect> </g> <g> <rect x="153.6" y="147.3" class="st0" width="176.7" height="16.3"></rect> </g> <g> <rect x="153.6" y="187.5" class="st0" width="176.7" height="16.3"></rect> </g> <g> <rect x="153.6" y="227.8" class="st0" width="176.7" height="16.3"></rect> </g> <g> <rect x="153.6" y="268.1" class="st0" width="105" height="16.3"></rect> </g> <g> <rect x="153.6" y="308.3" class="st0" width="69.8" height="16.3"></rect> </g> </g> </g> </svg> 